<svg width="130" height="130" viewBox="0 0 130 130" fill="none" xmlns="http://www.w3.org/2000/svg">
<path d="M76.103 32.4999C81.3936 33.5321 86.2559 36.1196 90.0675 39.9312C93.8791 43.7428 96.4666 48.6051 97.4988 53.8957M76.103 10.8333C87.0949 12.0544 97.3449 16.9767 105.17 24.792C112.995 32.6074 117.931 42.8512 119.165 53.8416M55.395 75.0915C48.8864 68.583 43.7471 61.2237 39.9771 53.3716C39.6529 52.6962 39.4907 52.3585 39.3662 51.9311C38.9235 50.4126 39.2415 48.5478 40.1624 47.2617C40.4215 46.8998 40.7311 46.5903 41.3503 45.9711C43.244 44.0774 44.1908 43.1305 44.8099 42.1784C47.1444 38.5877 47.1444 33.9587 44.8099 30.3681C44.1908 29.416 43.244 28.4691 41.3503 26.5754L40.2947 25.5199C37.4161 22.6412 35.9768 21.2019 34.431 20.42C31.3567 18.8651 27.7261 18.8651 24.6518 20.42C23.106 21.2019 21.6666 22.6412 18.788 25.5199L17.9341 26.3737C15.0653 29.2425 13.6309 30.6769 12.5354 32.6271C11.3198 34.7911 10.4458 38.1521 10.4532 40.6341C10.4598 42.8709 10.8937 44.3996 11.7615 47.457C16.4251 63.8879 25.2243 79.3924 38.1592 92.3273C51.0941 105.262 66.5986 114.061 83.0295 118.725C86.0869 119.593 87.6156 120.027 89.8524 120.033C92.3344 120.041 95.6954 119.167 97.8594 117.951C99.8096 116.856 101.244 115.421 104.113 112.552L104.967 111.698C107.845 108.82 109.285 107.381 110.066 105.835C111.621 102.76 111.621 99.1298 110.066 96.0555C109.285 94.5097 107.845 93.0704 104.967 90.1918L103.911 89.1362C102.017 87.2425 101.071 86.2957 100.118 85.6766C96.5277 83.3421 91.8988 83.3421 88.3081 85.6766C87.356 86.2957 86.4091 87.2425 84.5154 89.1362C83.8962 89.7554 83.5866 90.065 83.2247 90.3241C81.9387 91.245 80.0739 91.563 78.5553 91.1203C78.128 90.9958 77.7903 90.8336 77.1149 90.5093C69.2628 86.7394 61.9035 81.6001 55.395 75.0915Z" stroke="#C7C7C7" stroke-width="5" stroke-linecap="round" stroke-linejoin="round"/>
</svg>
